<svg width="32" height="21" viewBox="0 0 32 21" fill="none" xmlns="http://www.w3.org/2000/svg">
<path d="M12.0488 8.30788C12.2808 8.17255 12.4548 7.97922 12.5708 7.72789C12.6868 7.47656 12.7448 7.16723 12.7448 6.7999C12.7448 6.00725 12.4355 5.48526 11.8168 5.23393C11.2948 5.05993 10.6375 4.97293 9.84485 4.97293H5.40793V8.71387H10.2508C10.9855 8.71387 11.5848 8.57854 12.0488 8.30788ZM11.5558 6.7999C11.5558 7.07057 11.5172 7.2349 11.4398 7.29289C11.1692 7.46689 10.7728 7.55389 10.2508 7.55389H6.59691V6.13291H9.84485C10.4828 6.13291 11.0048 6.20058 11.4108 6.33591L11.4253 6.35041L11.4688 6.39391L11.5123 6.46641L11.5413 6.59691L11.5558 6.7999ZM11.9908 11.6718C11.9328 11.6332 11.8652 11.6042 11.7878 11.5848C11.7105 11.5655 11.6283 11.5413 11.5413 11.5123C11.4543 11.4833 11.3625 11.464 11.2658 11.4543L10.9758 11.4253L10.6568 11.3963L10.3088 11.3818H5.40793V15.9058H10.2508C10.6182 15.9058 10.942 15.8816 11.2223 15.8333C11.5027 15.7849 11.7492 15.7124 11.9618 15.6158C12.6965 15.2484 13.0638 14.5428 13.0638 13.4988C13.0638 13.0541 12.9768 12.6771 12.8028 12.3678C12.6288 12.0585 12.3581 11.8265 11.9908 11.6718ZM6.59691 12.5418H10.3088C10.6182 12.5611 10.8695 12.5853 11.0628 12.6143C11.2562 12.6433 11.4012 12.6868 11.4978 12.7448C11.7685 12.8608 11.9038 13.1121 11.9038 13.4988C11.9038 14.0401 11.7492 14.3881 11.4398 14.5428C11.4205 14.5621 11.3963 14.5766 11.3673 14.5863C11.3383 14.5959 11.2997 14.6056 11.2513 14.6153C11.203 14.6249 11.145 14.6394 11.0773 14.6588C11.0097 14.6781 10.9372 14.6926 10.8598 14.7023C10.7825 14.7119 10.6907 14.7168 10.5843 14.7168H6.59691V12.5418ZM25.7076 9.40986C25.5336 9.2552 25.3451 9.12953 25.1421 9.03287C24.9391 8.9362 24.7264 8.8637 24.5041 8.81537C24.2818 8.76704 24.0449 8.74287 23.7936 8.74287C23.3683 8.74287 22.9913 8.80087 22.6626 8.91687C22.334 9.03287 22.0536 9.20686 21.8217 9.43886C21.3577 9.92218 21.0677 10.5698 20.9517 11.3818V11.4398H26.6066L26.5776 11.3818C26.5002 10.5118 26.2102 9.85452 25.7076 9.40986ZM22.6916 10.2508C22.9236 10.0188 23.291 9.90285 23.7936 9.90285C24.2383 9.90285 24.6056 10.0188 24.8956 10.2508H22.6916ZM30.8985 10.8888C30.7245 9.76752 30.3378 8.7622 29.7385 7.87289C29.5452 7.60222 29.3422 7.35089 29.1295 7.1189C28.9169 6.8869 28.6897 6.67424 28.448 6.48091C28.2064 6.28758 27.9502 6.11358 27.6796 5.95892V1.29H19.8787V5.98792C19.4147 6.27791 18.9797 6.62591 18.5737 7.0319C17.6651 7.94055 17.0657 9.11986 16.7757 10.5698C16.6597 10.4152 16.5389 10.2653 16.4132 10.1203C16.2876 9.97535 16.1474 9.83519 15.9928 9.69985C16.0121 9.68052 16.0314 9.66602 16.0507 9.65636C16.0701 9.64669 16.0894 9.62252 16.1087 9.58386C16.7854 8.77187 17.1237 7.71822 17.1237 6.42291C17.1237 5.20493 16.8047 4.14161 16.1667 3.23296C15.1034 1.78299 13.3731 1.03867 10.9758 1H1V19.8787H10.3958C11.3238 19.8787 12.1841 19.7917 12.9768 19.6177C13.4215 19.521 13.8371 19.3857 14.2238 19.2117C14.6104 19.0377 14.9681 18.825 15.2968 18.5737C15.5868 18.361 15.8526 18.1194 16.0942 17.8487C16.3359 17.5781 16.5534 17.2784 16.7467 16.9497C16.9014 16.6984 17.0367 16.4471 17.1527 16.1957C17.3461 16.6791 17.5829 17.1141 17.8632 17.5007C18.1435 17.8874 18.4674 18.2257 18.8347 18.5157C20.304 19.695 21.986 20.2847 23.8806 20.2847C26.2006 20.2847 28.0179 19.5597 29.3325 18.1097C30.2025 17.2011 30.6955 16.2537 30.8115 15.2678L30.8985 14.6298H30.9855V13.4988C31.0048 12.9575 31.0048 12.4693 30.9855 12.0343C30.9662 11.5993 30.9372 11.2175 30.8985 10.8888ZM13.9338 9.78685L13.8468 9.81585L13.9628 9.87385C14.7941 10.1638 15.4224 10.6423 15.8478 11.3093C16.2731 11.9763 16.4857 12.7835 16.4857 13.7308C16.4857 14.0401 16.4616 14.3494 16.4132 14.6588C16.3649 14.9681 16.2827 15.2629 16.1667 15.5433C16.0507 15.8236 15.9154 16.0894 15.7608 16.3407C15.4514 16.8627 15.0648 17.2977 14.6008 17.6457C14.0788 18.0517 13.4601 18.332 12.7448 18.4867C12.0295 18.622 11.2465 18.6897 10.3958 18.6897H2.18898V2.15998H10.9468C12.9575 2.19865 14.3784 2.7883 15.2098 3.92895L15.4418 4.27695L15.6303 4.65394L15.7753 5.07443L15.8913 5.50942L15.9493 5.95892L15.9638 6.42291C15.9638 7.42823 15.7124 8.24021 15.2098 8.85887C14.9198 9.18753 14.4944 9.49686 13.9338 9.78685ZM23.7936 5.00193C23.465 5.00193 23.175 5.0116 22.9236 5.03093H21.0677V2.44998H26.5196V5.03093H24.6636C24.3156 5.0116 24.0256 5.00193 23.7936 5.00193ZM20.8937 13.4988C20.8937 13.8081 20.9275 14.0981 20.9952 14.3688C21.0628 14.6394 21.1498 14.8859 21.2562 15.1083C21.3625 15.3306 21.493 15.5239 21.6477 15.6883C21.8023 15.8526 21.986 16.0024 22.1986 16.1377C22.7013 16.4471 23.3006 16.6017 23.9966 16.6017C24.1706 16.6017 24.3446 16.5921 24.5186 16.5727C24.6926 16.5534 24.8521 16.5196 24.9971 16.4712C25.1421 16.4229 25.2823 16.3601 25.4176 16.2827C25.5529 16.2054 25.6786 16.1184 25.7946 16.0217C25.8719 15.9637 25.9493 15.8913 26.0266 15.8043C26.1039 15.7173 26.1812 15.6254 26.2586 15.5288C26.3359 15.4321 26.4036 15.3161 26.4616 15.1808H29.6515C29.5549 15.8961 29.1682 16.6114 28.4915 17.3267C27.3896 18.5254 25.8526 19.1247 23.8806 19.1247C23.6486 19.1247 23.4215 19.115 23.1991 19.0957C22.9768 19.0764 22.7593 19.0425 22.5466 18.9942C22.334 18.9459 22.1213 18.8927 21.9087 18.8347C21.696 18.7767 21.4882 18.709 21.2852 18.6317C21.0822 18.5544 20.884 18.4625 20.6907 18.3562C20.4973 18.2499 20.3088 18.1339 20.1252 18.0082C19.9415 17.8826 19.7627 17.7521 19.5887 17.6167C18.3514 16.6114 17.7327 14.9778 17.7327 12.7158C17.7327 10.6085 18.2934 8.9942 19.4147 7.87289C20.362 6.90623 21.551 6.34558 22.9816 6.19091H24.5766C24.9633 6.22958 25.3258 6.29724 25.6641 6.39391C26.0024 6.49057 26.3262 6.60657 26.6356 6.7419C27.0609 6.93523 27.4524 7.18173 27.8101 7.48139C28.1677 7.78105 28.4819 8.13388 28.7525 8.53987C29.2552 9.2552 29.5742 10.0962 29.7095 11.0628C29.8062 11.6235 29.8449 12.4258 29.8255 13.4698H20.8937V13.4988ZM25.0696 15.1228C24.8183 15.3354 24.4606 15.4418 23.9966 15.4418C23.8226 15.4418 23.668 15.4273 23.5326 15.3983C23.3973 15.3693 23.2716 15.3354 23.1556 15.2968C23.0396 15.2581 22.9236 15.2098 22.8076 15.1518C22.595 14.9971 22.4306 14.8231 22.3146 14.6298H25.4176C25.3016 14.8424 25.1856 15.0068 25.0696 15.1228Z" fill="#513595" stroke="#513595" stroke-width="0.5"/>
</svg>
