<svg width="18" height="18" viewBox="0 0 18 18" fill="none" xmlns="http://www.w3.org/2000/svg">
<path d="M11.9995 12.7956L13.5503 11.2448C13.7579 11.0372 14.0218 10.895 14.3094 10.836C14.597 10.7769 14.8957 10.8035 15.1683 10.9125L17.057 11.6685C17.3353 11.7799 17.5739 11.9721 17.742 12.2204C17.9101 12.4687 17.9999 12.7617 17.9999 13.0615V16.4961C18.0004 16.7003 17.9592 16.9024 17.8789 17.0901C17.7986 17.2777 17.6808 17.447 17.5328 17.5876C17.3847 17.7282 17.2096 17.8371 17.018 17.9076C16.8264 17.9781 16.6225 18.0088 16.4186 17.9978C3.1799 17.1739 0.506122 5.96097 0.00972181 1.66714C-0.0143203 1.45722 0.00635208 1.24459 0.0703795 1.04323C0.134407 0.84188 0.240338 0.656361 0.381206 0.498883C0.522074 0.341404 0.694686 0.215532 0.887689 0.129548C1.08069 0.0435641 1.28971 -0.000584625 1.501 5.84564e-06H4.87472C5.17455 -3.78192e-06 5.4675 0.0898228 5.71579 0.257898C5.96408 0.425974 6.15631 0.664588 6.26769 0.942959L7.02302 2.83163C7.13203 3.10426 7.15864 3.40287 7.09957 3.69047C7.0405 3.97807 6.89834 4.24202 6.6907 4.44961L5.13989 6.00043C5.13989 6.00043 5.99976 12.0459 11.9995 12.7956Z" fill="#333333"/>
<path d="M13.155 7.61558H11.7703C11.7698 7.0649 11.5508 6.53693 11.1614 6.14753C10.772 5.75814 10.244 5.53914 9.69336 5.53859V4.15393C10.6111 4.15503 11.491 4.52009 12.1399 5.16904C12.7888 5.81799 13.1539 6.69783 13.155 7.61558V7.61558Z" fill="#333333"/>
<path d="M15.9243 7.61561H14.5397C14.5382 6.33074 14.0271 5.09891 13.1186 4.19037C12.2101 3.28183 10.9782 2.77077 9.69336 2.7693V1.38464C11.3454 1.38648 12.9292 2.04354 14.0973 3.21168C15.2654 4.37981 15.9225 5.96362 15.9243 7.61561V7.61561Z" fill="#333333"/>
</svg>
