<svg width="60" height="60" viewBox="0 0 60 60" fill="none" xmlns="http://www.w3.org/2000/svg">
<path d="M25.4 30.2L26.6 31.8L23.667 34L26.6 36.2L25.4 37.8L21.4 34.8C21.3243 34.7431 21.2569 34.6757 21.2 34.6C20.8686 34.1581 20.9581 33.5314 21.4 33.2L25.4 30.2Z" fill="black"/>
<path d="M38.8 33.4C38.7431 33.3242 38.6758 33.2569 38.6 33.2L34.6 30.2L33.4 31.8L36.333 34L33.4 36.2L34.6 37.8L38.6 34.8C39.0419 34.4686 39.1314 33.8419 38.8 33.4Z" fill="black"/>
<path d="M27.0706 38.633L31.0716 28.6341L32.9284 29.3771L28.9274 39.376L27.0706 38.633Z" fill="black"/>
<path fill-rule="evenodd" clip-rule="evenodd" d="M30 21C22.8202 21 17 26.8202 17 34C17 41.1797 22.8202 47 30 47C37.1797 47 43 41.1797 43 34C42.9917 26.8237 37.1763 21.0082 30 21ZM30 45C23.9249 45 19 40.0751 19 34C19 27.9249 23.9249 23 30 23C36.0751 23 41 27.9249 41 34C40.9929 40.0721 36.0721 44.9929 30 45Z" fill="black"/>
<path fill-rule="evenodd" clip-rule="evenodd" d="M46.517 30H50C50.5522 30 51 30.4478 51 31V37C51 37.5522 50.5522 38 50 38H46.517C46.1074 39.7136 45.4305 41.352 44.511 42.855L46.971 45.314C47.3614 45.7045 47.3614 46.3375 46.971 46.728L42.728 50.971C42.3375 51.3614 41.7045 51.3614 41.314 50.971L38.855 48.511C37.352 49.4305 35.7136 50.1074 34 50.517V54C34 54.5522 33.5522 55 33 55H27C26.4478 55 26 54.5522 26 54V50.517C24.2864 50.1074 22.648 49.4305 21.145 48.511L18.686 50.971C18.2893 51.3461 17.6687 51.3461 17.272 50.971L13.029 46.728C12.6386 46.3375 12.6386 45.7045 13.029 45.314L15.489 42.855C14.5695 41.352 13.8926 39.7136 13.483 38H10C9.44775 38 9 37.5522 9 37V31C9 30.4478 9.44775 30 10 30H13.483C13.8926 28.2864 14.5695 26.648 15.489 25.145L13.029 22.686C12.6386 22.2955 12.6386 21.6625 13.029 21.272L17.272 17.029C17.6625 16.6386 18.2955 16.6386 18.686 17.029L21.145 19.489C22.648 18.5695 24.2864 17.8926 26 17.483V14C26 13.4478 26.4478 13 27 13H33C33.5522 13 34 13.4478 34 14V17.483C35.7136 17.8926 37.352 18.5695 38.855 19.489L41.314 17.029C41.7108 16.6539 42.3312 16.6539 42.728 17.029L46.971 21.272C47.3614 21.6625 47.3614 22.2955 46.971 22.686L44.511 25.145C45.4305 26.648 46.1074 28.2864 46.517 30ZM45.709 36H49V31.998H45.709C45.229 31.9979 44.8167 31.6566 44.727 31.185C44.3491 29.1731 43.5592 27.261 42.407 25.569C42.137 25.1723 42.187 24.6396 42.526 24.3L44.85 21.979L42.021 19.15L39.698 21.474C39.3584 21.813 38.8258 21.863 38.429 21.593C36.737 20.4408 34.8249 19.6509 32.813 19.273C32.3414 19.1833 32.0001 18.771 32 18.291V15H28V18.291C27.9996 18.7716 27.6574 19.1841 27.185 19.273C25.1731 19.6509 23.261 20.4408 21.569 21.593C21.1723 21.863 20.6396 21.813 20.3 21.474L17.979 19.15L15.15 21.979L17.474 24.302C17.813 24.6416 17.863 25.1742 17.593 25.571C16.4408 27.263 15.6509 29.1751 15.273 31.187C15.1832 31.6586 14.771 31.9999 14.291 32H11V36H14.291C14.7716 36.0004 15.1841 36.3426 15.273 36.815C15.6509 38.8269 16.4408 40.739 17.593 42.431C17.863 42.8278 17.813 43.3604 17.474 43.7L15.15 46.021L17.979 48.85L20.302 46.526C20.6416 46.187 21.1742 46.137 21.571 46.407C23.263 47.5592 25.1751 48.3491 27.187 48.727C27.6586 48.8167 27.9999 49.229 28 49.709V53H32.002V49.709C32.0021 49.229 32.3434 48.8167 32.815 48.727C34.8269 48.3491 36.739 47.5592 38.431 46.407C38.8278 46.137 39.3604 46.187 39.7 46.526L42.021 48.85L44.85 46.021L42.526 43.698C42.187 43.3584 42.137 42.8258 42.407 42.429C43.5592 40.737 44.3491 38.8249 44.727 36.813C44.8167 36.3414 45.229 36.0001 45.709 36Z" fill="black"/>
<path d="M4 4H6V6H4V4Z" fill="black"/>
<path d="M10 4H8V6H10V4Z" fill="black"/>
<path d="M14 4H12V6H14V4Z" fill="black"/>
<path fill-rule="evenodd" clip-rule="evenodd" d="M56 0H4C1.79087 0 0 1.79087 0 4V56C0 58.2091 1.79087 60 4 60H56C58.2091 60 60 58.2091 60 56V4C60 1.79087 58.2091 0 56 0ZM58 56C58 57.1046 57.1046 58 56 58H4C2.89538 58 2 57.1046 2 56V10H58V56ZM58 8H2V4C2 2.89538 2.89538 2 4 2H56C57.1046 2 58 2.89538 58 4V8Z" fill="black"/>
</svg>
