<svg width="30" height="30" viewBox="0 0 30 30" fill="none" xmlns="http://www.w3.org/2000/svg">
<path d="M15 0C6.72837 0 0 6.72837 0 15C0 23.2716 6.72837 30 15 30C23.2716 30 30 23.2716 30 15C30 6.72837 23.2716 0 15 0ZM24.9195 6.91586C26.7043 9.09736 27.7861 11.8738 27.8113 14.899C27.3894 14.8089 23.1526 13.9507 18.8906 14.488C18.8005 14.268 18.7103 14.0481 18.6166 13.8281C18.3498 13.2043 18.0649 12.5805 17.7656 11.9712C22.5 10.0349 24.649 7.28365 24.9195 6.91586ZM15 2.20673C18.256 2.20673 21.2308 3.42909 23.4916 5.43389C23.2608 5.76202 21.3317 8.35457 16.7776 10.0637C14.6791 6.20553 12.3534 3.03966 11.9964 2.5637C12.9808 2.32572 13.9868 2.20673 15 2.20673V2.20673ZM9.55168 3.42548C9.89062 3.88702 12.1803 7.0637 14.3005 10.8353C8.30769 12.4255 3.02885 12.4038 2.45553 12.3966C3.28846 8.41947 5.96755 5.11659 9.55168 3.42548ZM2.1887 15.018C2.1887 14.8882 2.19231 14.7548 2.19591 14.625C2.75481 14.6358 8.96394 14.7151 15.3642 12.8005C15.732 13.518 16.0817 14.2464 16.4026 14.9748C16.2332 15.0216 16.0637 15.0721 15.8978 15.1262C9.28846 17.268 5.77284 23.0913 5.48077 23.5853C3.4363 21.3137 2.1887 18.3101 2.1887 15.018ZM15 27.8293C12.0361 27.8293 9.30649 26.8197 7.13582 25.125C7.36659 24.6526 9.95913 19.6442 17.1851 17.1238L17.268 17.095C19.0673 21.768 19.8101 25.6875 20.0012 26.8125C18.4206 27.4881 16.7189 27.834 15 27.8293V27.8293ZM22.1575 25.6406C22.0276 24.8618 21.3462 21.1118 19.6695 16.5072C23.6863 15.8654 27.2127 16.9183 27.649 17.0553C27.0793 20.6178 25.0349 23.6971 22.1575 25.6406V25.6406Z" fill="#513595"/>
</svg>
