<svg width="60" height="60" viewBox="0 0 60 60" fill="none" xmlns="http://www.w3.org/2000/svg">
<path d="M34.4262 52.1311H32.459V42.4918C32.459 42.2309 32.3554 41.9808 32.1709 41.7963C31.9865 41.6118 31.7363 41.5082 31.4754 41.5082C31.2145 41.5082 30.9644 41.6118 30.7799 41.7963C30.5954 41.9808 30.4918 42.2309 30.4918 42.4918V52.1311H4.91803V32.459H13.1016C13.3625 32.459 13.6127 32.3554 13.7972 32.1709C13.9816 31.9865 14.0852 31.7363 14.0852 31.4754C14.0852 31.2145 13.9816 30.9644 13.7972 30.7799C13.6127 30.5954 13.3625 30.4918 13.1016 30.4918H3.93443C3.67356 30.4918 3.42337 30.5954 3.23891 30.7799C3.05445 30.9644 2.95082 31.2145 2.95082 31.4754V52.1311H0.983606C0.722738 52.1311 0.472554 52.2348 0.288092 52.4192C0.10363 52.6037 0 52.8539 0 53.1148V55.082C0 56.3863 0.518148 57.6372 1.44046 58.5595C2.36277 59.4819 3.61369 60 4.91803 60H30.4918C31.7961 60 33.0471 59.4819 33.9694 58.5595C34.8917 57.6372 35.4098 56.3863 35.4098 55.082V53.1148C35.4098 52.8539 35.3062 52.6037 35.1217 52.4192C34.9373 52.2348 34.6871 52.1311 34.4262 52.1311ZM33.4426 55.082C33.4426 55.8646 33.1317 56.6151 32.5783 57.1685C32.025 57.7219 31.2744 58.0328 30.4918 58.0328H28.5246V57.0492C28.5246 56.7883 28.421 56.5381 28.2365 56.3537C28.052 56.1692 27.8018 56.0656 27.541 56.0656C27.2801 56.0656 27.0299 56.1692 26.8455 56.3537C26.661 56.5381 26.5574 56.7883 26.5574 57.0492V58.0328H8.85246V57.0492C8.85246 56.7883 8.74883 56.5381 8.56437 56.3537C8.3799 56.1692 8.12972 56.0656 7.86885 56.0656C7.60798 56.0656 7.3578 56.1692 7.17334 56.3537C6.98888 56.5381 6.88525 56.7883 6.88525 57.0492V58.0328H4.91803C4.13543 58.0328 3.38487 57.7219 2.83149 57.1685C2.2781 56.6151 1.96721 55.8646 1.96721 55.082V54.0984H33.4426V55.082Z" fill="white"/>
<path d="M51.1475 6.88525H53.1147C53.3756 6.88525 53.6258 6.78162 53.8103 6.59716C53.9947 6.4127 54.0984 6.16251 54.0984 5.90164C54.0984 5.64077 53.9947 5.39059 53.8103 5.20613C53.6258 5.02167 53.3756 4.91804 53.1147 4.91804H51.1475C50.3649 4.91804 49.6144 5.22893 49.061 5.78231C48.5076 6.3357 48.1967 7.08625 48.1967 7.86886V8.85246H47.2131C46.9522 8.85246 46.7021 8.95609 46.5176 9.14055C46.3331 9.32502 46.2295 9.5752 46.2295 9.83607C46.2295 10.0969 46.3331 10.3471 46.5176 10.5316C46.7021 10.716 46.9522 10.8197 47.2131 10.8197H48.1967V13.7705C48.1967 14.0314 48.3003 14.2815 48.4848 14.466C48.6693 14.6505 48.9195 14.7541 49.1803 14.7541C49.4412 14.7541 49.6914 14.6505 49.8758 14.466C50.0603 14.2815 50.1639 14.0314 50.1639 13.7705V10.8197H51.1475C51.4084 10.8197 51.6586 10.716 51.8431 10.5316C52.0275 10.3471 52.1311 10.0969 52.1311 9.83607C52.1311 9.5752 52.0275 9.32502 51.8431 9.14055C51.6586 8.95609 51.4084 8.85246 51.1475 8.85246H50.1639V7.86886C50.1639 7.60799 50.2676 7.3578 50.452 7.17334C50.6365 6.98888 50.8867 6.88525 51.1475 6.88525Z" fill="white"/>
<path d="M56.0656 0.983611H44.2623C43.4797 0.983611 42.7291 1.2945 42.1757 1.84789C41.6224 2.40127 41.3115 3.15182 41.3115 3.93443V5.90164C41.3115 6.16251 41.4151 6.4127 41.5996 6.59716C41.784 6.78162 42.0342 6.88525 42.2951 6.88525C42.5559 6.88525 42.8061 6.78162 42.9906 6.59716C43.1751 6.4127 43.2787 6.16251 43.2787 5.90164V3.93443C43.2787 3.67356 43.3823 3.42338 43.5668 3.23892C43.7512 3.05445 44.0014 2.95082 44.2623 2.95082H56.0656C56.3264 2.95082 56.5766 3.05445 56.7611 3.23892C56.9455 3.42338 57.0492 3.67356 57.0492 3.93443V15.7377C57.0492 15.9986 56.9455 16.2488 56.7611 16.4332C56.5766 16.6177 56.3264 16.7213 56.0656 16.7213H44.2623C44.0014 16.7213 43.7512 16.6177 43.5668 16.4332C43.3823 16.2488 43.2787 15.9986 43.2787 15.7377V9.83607C43.2787 9.5752 43.1751 9.32502 42.9906 9.14055C42.8061 8.95609 42.5559 8.85246 42.2951 8.85246C42.0342 8.85246 41.784 8.95609 41.5996 9.14055C41.4151 9.32502 41.3115 9.5752 41.3115 9.83607V15.7377C41.3115 16.5203 41.6224 17.2709 42.1757 17.8243C42.7291 18.3776 43.4797 18.6885 44.2623 18.6885H56.0656C56.8482 18.6885 57.5987 18.3776 58.1521 17.8243C58.7055 17.2709 59.0164 16.5203 59.0164 15.7377V3.93443C59.0164 3.15182 58.7055 2.40127 58.1521 1.84789C57.5987 1.2945 56.8482 0.983611 56.0656 0.983611Z" fill="white"/>
<path d="M46.2295 40.3279C46.2295 41.106 46.4603 41.8667 46.8926 42.5137C47.3249 43.1607 47.9394 43.665 48.6583 43.9628C49.3772 44.2606 50.1683 44.3385 50.9315 44.1867C51.6947 44.0349 52.3957 43.6602 52.946 43.1099C53.4962 42.5597 53.8709 41.8586 54.0228 41.0954C54.1746 40.3322 54.0967 39.5412 53.7989 38.8222C53.5011 38.1033 52.9968 37.4888 52.3498 37.0565C51.7028 36.6242 50.9421 36.3934 50.1639 36.3934C49.1205 36.3934 48.1197 36.808 47.3819 37.5458C46.644 38.2837 46.2295 39.2844 46.2295 40.3279ZM52.1311 40.3279C52.1311 40.7169 52.0158 41.0973 51.7996 41.4208C51.5834 41.7443 51.2762 41.9964 50.9167 42.1453C50.5573 42.2942 50.1617 42.3332 49.7801 42.2573C49.3985 42.1814 49.048 41.994 48.7729 41.7189C48.4978 41.4438 48.3104 41.0933 48.2345 40.7117C48.1586 40.3301 48.1976 39.9345 48.3465 39.5751C48.4954 39.2156 48.7475 38.9084 49.071 38.6922C49.3945 38.476 49.7749 38.3607 50.1639 38.3607C50.6857 38.3607 51.186 38.5679 51.555 38.9368C51.9239 39.3058 52.1311 39.8061 52.1311 40.3279Z" fill="white"/>
<path d="M56.0656 31.4754H44.2623C43.4797 31.4754 42.7291 31.7863 42.1757 32.3397C41.6224 32.8931 41.3115 33.6436 41.3115 34.4262V46.2295C41.3115 47.0121 41.6224 47.7627 42.1757 48.3161C42.7291 48.8694 43.4797 49.1803 44.2623 49.1803H56.0656C56.8482 49.1803 57.5987 48.8694 58.1521 48.3161C58.7055 47.7627 59.0164 47.0121 59.0164 46.2295V44.2623C59.0164 44.0014 58.9128 43.7512 58.7283 43.5668C58.5438 43.3823 58.2936 43.2787 58.0328 43.2787C57.7719 43.2787 57.5217 43.3823 57.3373 43.5668C57.1528 43.7512 57.0492 44.0014 57.0492 44.2623V46.2295C57.0492 46.4904 56.9455 46.7406 56.7611 46.925C56.5766 47.1095 56.3264 47.2131 56.0656 47.2131H44.2623C44.0014 47.2131 43.7512 47.1095 43.5668 46.925C43.3823 46.7406 43.2787 46.4904 43.2787 46.2295V34.4262C43.2787 34.1654 43.3823 33.9152 43.5668 33.7307C43.7512 33.5463 44.0014 33.4426 44.2623 33.4426H56.0656C56.3264 33.4426 56.5766 33.5463 56.7611 33.7307C56.9455 33.9152 57.0492 34.1654 57.0492 34.4262V40.3279C57.0492 40.5887 57.1528 40.8389 57.3373 41.0234C57.5217 41.2078 57.7719 41.3115 58.0328 41.3115C58.2936 41.3115 58.5438 41.2078 58.7283 41.0234C58.9128 40.8389 59.0164 40.5887 59.0164 40.3279V34.4262C59.0164 33.6436 58.7055 32.8931 58.1521 32.3397C57.5987 31.7863 56.8482 31.4754 56.0656 31.4754Z" fill="white"/>
<path d="M22.1016 12.6393C22.2582 12.7364 22.4388 12.7875 22.6229 12.7869C22.7769 12.786 22.9285 12.7489 23.0656 12.6787L28.9672 9.72787C29.1283 9.64533 29.2635 9.51992 29.358 9.36547C29.4524 9.21101 29.5023 9.03349 29.5023 8.85246C29.5023 8.67143 29.4524 8.49392 29.358 8.33946C29.2635 8.185 29.1283 8.05959 28.9672 7.97705L23.0656 5.02623C22.9158 4.95078 22.7493 4.91486 22.5818 4.92187C22.4143 4.92889 22.2513 4.97862 22.1084 5.06633C21.9655 5.15404 21.8474 5.27682 21.7653 5.42302C21.6832 5.56922 21.6398 5.73397 21.6393 5.90164V11.8033C21.639 11.9704 21.6813 12.1349 21.7622 12.2812C21.8431 12.4275 21.9599 12.5508 22.1016 12.6393ZM23.6066 7.49509L26.3213 8.85246L23.6066 10.2098V7.49509Z" fill="white"/>
<path d="M24.5902 17.7049C26.341 17.7049 28.0525 17.1857 29.5083 16.213C30.9641 15.2403 32.0987 13.8577 32.7688 12.2402C33.4388 10.6226 33.6141 8.84264 33.2725 7.12543C32.9309 5.40822 32.0878 3.83087 30.8498 2.59283C29.6118 1.35479 28.0344 0.511676 26.3172 0.170101C24.6 -0.171473 22.82 0.00383559 21.2025 0.673857C19.5849 1.34388 18.2023 2.47852 17.2296 3.9343C16.2569 5.39008 15.7377 7.10161 15.7377 8.85246C15.7377 11.2003 16.6704 13.4519 18.3305 15.1121C19.9907 16.7723 22.2423 17.7049 24.5902 17.7049ZM24.5902 1.96722C25.9519 1.96722 27.2831 2.37103 28.4154 3.12759C29.5477 3.88415 30.4302 4.95948 30.9513 6.21759C31.4724 7.47571 31.6088 8.8601 31.3431 10.1957C31.0774 11.5313 30.4217 12.7581 29.4588 13.7211C28.4958 14.684 27.269 15.3397 25.9334 15.6054C24.5978 15.8711 23.2134 15.7347 21.9553 15.2136C20.6972 14.6925 19.6218 13.81 18.8653 12.6777C18.1087 11.5454 17.7049 10.2142 17.7049 8.85246C17.7049 7.02638 18.4303 5.27509 19.7216 3.98386C21.0128 2.69262 22.7641 1.96722 24.5902 1.96722Z" fill="white"/>
<path d="M34.4262 21.6393C34.5789 21.6393 34.7295 21.6038 34.8661 21.5355C35.0027 21.4672 35.1215 21.3681 35.2131 21.2459L38.1639 17.3115C38.3205 17.1028 38.3877 16.8405 38.3508 16.5822C38.3139 16.324 38.1759 16.091 37.9672 15.9344C37.7585 15.7779 37.4962 15.7107 37.2379 15.7476C36.9797 15.7845 36.7467 15.9225 36.5902 16.1312L33.6393 20.0656C33.4828 20.2743 33.4156 20.5366 33.4525 20.7948C33.4894 21.0531 33.6274 21.2861 33.8361 21.4426C34.0063 21.5703 34.2134 21.6393 34.4262 21.6393Z" fill="white"/>
<path d="M36.5902 25.1803C36.6818 25.3025 36.8006 25.4016 36.9372 25.4699C37.0737 25.5382 37.2243 25.5738 37.377 25.5738C37.5899 25.5738 37.7969 25.5047 37.9672 25.3771L41.9016 22.4262C42.1103 22.2697 42.2483 22.0367 42.2852 21.7785C42.3221 21.5202 42.2549 21.2579 42.0984 21.0492C41.9418 20.8405 41.7088 20.7025 41.4506 20.6656C41.1923 20.6287 40.93 20.6959 40.7213 20.8525L36.7869 23.8033C36.5782 23.9598 36.4402 24.1928 36.4033 24.4511C36.3664 24.7093 36.4336 24.9716 36.5902 25.1803Z" fill="white"/>
<path d="M46.2295 27.3443C46.2061 27.2139 46.1566 27.0895 46.084 26.9787C46.0114 26.8679 45.9172 26.7729 45.8069 26.6994C45.6967 26.6259 45.5728 26.5755 45.4426 26.5511C45.3123 26.5267 45.1785 26.5288 45.0492 26.5574L40.1311 27.541C40.002 27.5539 39.8766 27.5921 39.7622 27.6535C39.6478 27.7149 39.5466 27.7982 39.4644 27.8986C39.2984 28.1015 39.2198 28.3621 39.2459 28.623C39.272 28.8838 39.4006 29.1236 39.6035 29.2897C39.8064 29.4557 40.067 29.5343 40.3279 29.5082H40.5246L45.4426 28.5246C45.573 28.5012 45.6974 28.4517 45.8082 28.3791C45.919 28.3065 46.014 28.2123 46.0875 28.102C46.1609 27.9918 46.2114 27.8679 46.2358 27.7376C46.2602 27.6074 46.2581 27.4736 46.2295 27.3443Z" fill="white"/>
<path d="M0.983606 27.541H12.7869C13.0478 27.541 13.2979 27.4374 13.4824 27.2529C13.6669 27.0684 13.7705 26.8182 13.7705 26.5574V10.8197C13.7705 10.5588 13.6669 10.3086 13.4824 10.1242C13.2979 9.9397 13.0478 9.83607 12.7869 9.83607H0.983606C0.722738 9.83607 0.472554 9.9397 0.288092 10.1242C0.10363 10.3086 0 10.5588 0 10.8197V26.5574C0 26.8182 0.10363 27.0684 0.288092 27.2529C0.472554 27.4374 0.722738 27.541 0.983606 27.541ZM1.96721 11.8033H11.8033V25.5738H1.96721V11.8033Z" fill="white"/>
<path d="M8.85246 13.7705H6.88525C6.62438 13.7705 6.37419 13.8741 6.18973 14.0586C6.00527 14.243 5.90164 14.4932 5.90164 14.7541C5.90164 15.015 6.00527 15.2652 6.18973 15.4496C6.37419 15.6341 6.62438 15.7377 6.88525 15.7377H8.85246C9.11333 15.7377 9.36351 15.6341 9.54797 15.4496C9.73243 15.2652 9.83606 15.015 9.83606 14.7541C9.83606 14.4932 9.73243 14.243 9.54797 14.0586C9.36351 13.8741 9.11333 13.7705 8.85246 13.7705Z" fill="white"/>
<path d="M8.85246 17.7049H4.91803C4.65716 17.7049 4.40698 17.8085 4.22252 17.993C4.03806 18.1775 3.93443 18.4277 3.93443 18.6885C3.93443 18.9494 4.03806 19.1996 4.22252 19.384C4.40698 19.5685 4.65716 19.6721 4.91803 19.6721H8.85246C9.11333 19.6721 9.36351 19.5685 9.54797 19.384C9.73243 19.1996 9.83606 18.9494 9.83606 18.6885C9.83606 18.4277 9.73243 18.1775 9.54797 17.993C9.36351 17.8085 9.11333 17.7049 8.85246 17.7049Z" fill="white"/>
<path d="M8.85246 21.6393H4.91803C4.65716 21.6393 4.40698 21.743 4.22252 21.9274C4.03806 22.1119 3.93443 22.3621 3.93443 22.623C3.93443 22.8838 4.03806 23.134 4.22252 23.3185C4.40698 23.5029 4.65716 23.6066 4.91803 23.6066H8.85246C9.11333 23.6066 9.36351 23.5029 9.54797 23.3185C9.73243 23.134 9.83606 22.8838 9.83606 22.623C9.83606 22.3621 9.73243 22.1119 9.54797 21.9274C9.36351 21.743 9.11333 21.6393 8.85246 21.6393Z" fill="white"/>
<path d="M33.5607 27.2459C33.4961 27.1335 33.41 27.035 33.3073 26.9559C33.2046 26.8768 33.0874 26.8186 32.9623 26.7849C32.8371 26.7511 32.7066 26.7422 32.578 26.7589C32.4495 26.7756 32.3255 26.8174 32.2131 26.882C32.1007 26.9466 32.0022 27.0326 31.9231 27.1353C31.844 27.238 31.7859 27.3552 31.7521 27.4804C31.7183 27.6055 31.7094 27.7361 31.7261 27.8646C31.7428 27.9931 31.7846 28.1171 31.8492 28.2295L36.1869 35.7344L20.4492 41.6361C20.4492 41.6361 20.4492 41.6361 20.3803 41.6361H20.3016L16.0426 44.0951C15.8186 44.2246 15.5712 44.3086 15.3147 44.3424C15.0581 44.3761 14.7974 44.359 14.5475 44.2918C14.0455 44.1562 13.6176 43.8273 13.3574 43.377L11.3902 39.9738C11.1587 39.5285 11.1062 39.0116 11.2433 38.5289C11.3805 38.0462 11.6969 37.6341 12.1279 37.3771L15.5311 35.4098L17.9902 39.6689C18.0768 39.819 18.2016 39.9435 18.3519 40.0299C18.5022 40.1162 18.6726 40.1613 18.8459 40.1607C19.0189 40.1613 19.189 40.1164 19.3391 40.0304C19.4891 39.9443 19.6139 39.8202 19.7007 39.6706C19.7875 39.5209 19.8332 39.351 19.8334 39.178C19.8336 39.005 19.7881 38.8351 19.7016 38.6852L17.1639 34.2984L29.5082 24.118L29.9115 24.8164C29.9761 24.9288 30.0621 25.0273 30.1648 25.1064C30.2675 25.1855 30.3847 25.2437 30.5099 25.2774C30.635 25.3112 30.7656 25.3201 30.8941 25.3034C31.0226 25.2867 31.1466 25.2449 31.259 25.1803C31.3714 25.1157 31.4699 25.0297 31.5491 24.927C31.6282 24.8243 31.6863 24.7071 31.7201 24.5819C31.7539 24.4568 31.7627 24.3262 31.746 24.1977C31.7293 24.0692 31.6875 23.9452 31.6229 23.8328L30.6393 22.1312C30.5673 22.0079 30.4692 21.9018 30.352 21.8203C30.2348 21.7388 30.1013 21.6837 29.9607 21.659C29.8193 21.6324 29.6738 21.6371 29.5344 21.6728C29.3951 21.7084 29.2653 21.7743 29.1541 21.8656L15.3836 33.2164L11.1934 35.6361C10.4415 36.0741 9.85595 36.749 9.52847 37.5552C9.20099 38.3615 9.15005 39.2535 9.38361 40.0918L8.4 40.6525C7.8932 40.9435 7.48424 41.3785 7.22496 41.9022C6.96567 42.426 6.86776 43.0149 6.94361 43.5944C7.01947 44.1739 7.26569 44.7178 7.65105 45.1571C8.03641 45.5965 8.54356 45.9115 9.1082 46.0623C9.35851 46.1286 9.61646 46.1617 9.87541 46.1607C10.3929 46.1585 10.901 46.023 11.3508 45.7672L12.3344 45.2066C12.8069 45.6947 13.4011 46.0478 14.0557 46.2295C14.3919 46.3235 14.7395 46.3699 15.0885 46.3672C15.7799 46.3688 16.4591 46.1854 17.0557 45.8361L17.9115 45.3443L19.8787 48.7574C20.2696 49.4333 20.9126 49.9267 21.6666 50.1295C22.4207 50.3323 23.2244 50.228 23.9016 49.8393C24.2376 49.6457 24.5322 49.3878 24.7684 49.0803C25.0047 48.7728 25.178 48.4217 25.2785 48.0472C25.379 47.6727 25.4047 47.282 25.3541 46.8975C25.3035 46.5131 25.1776 46.1423 24.9836 45.8066L23.1934 42.6885L37.9475 37.1508C38.0813 37.1005 38.2026 37.0217 38.3028 36.9198C38.403 36.8178 38.4798 36.6953 38.5279 36.5607C38.5757 36.4276 38.5944 36.2858 38.5825 36.145C38.5706 36.0041 38.5285 35.8674 38.459 35.7443L33.5607 27.2459ZM10.3279 44.0557C10.2159 44.1205 10.0922 44.1625 9.9639 44.1794C9.83562 44.1963 9.70528 44.1877 9.58033 44.1541C9.32833 44.0886 9.11256 43.9259 8.98033 43.7016C8.91557 43.5896 8.87355 43.4659 8.85668 43.3377C8.8398 43.2094 8.84839 43.079 8.88197 42.9541C8.91555 42.8285 8.97369 42.7108 9.05304 42.6078C9.13239 42.5048 9.23138 42.4186 9.34426 42.3541L10.2 41.8623L11.1836 43.5639L10.3279 44.0557ZM23.2721 46.8098C23.3369 46.9218 23.3789 47.0455 23.3958 47.1738C23.4127 47.3021 23.4041 47.4324 23.3705 47.5574C23.3003 47.8074 23.1342 48.0196 22.9082 48.1475C22.6835 48.2766 22.417 48.3118 22.1665 48.2455C21.9161 48.1792 21.7019 48.0168 21.5705 47.7934L19.6033 44.3803L21.2361 43.4459H21.3148L23.2721 46.8098Z" fill="white"/>
</svg>
