<svg width="56" height="60" viewBox="0 0 56 60" fill="none" xmlns="http://www.w3.org/2000/svg">
<path d="M25.9135 10.7329C26.085 10.9044 26.31 10.9902 26.5348 10.9902C26.7596 10.9902 26.9846 10.9044 27.1562 10.7329L31.2612 6.62795C31.6043 6.28468 31.6043 5.72841 31.2612 5.38526C30.9179 5.04222 30.3616 5.04222 30.0185 5.38526L26.5349 8.86894L25.9438 8.27788C25.6007 7.93484 25.0443 7.93472 24.7012 8.27799C24.358 8.62115 24.358 9.17753 24.7013 9.52057L25.9135 10.7329Z" fill="white"/>
<path fill-rule="evenodd" clip-rule="evenodd" d="M35.2594 7.8007C35.2594 12.1021 31.76 15.6015 27.4586 15.6015C23.1572 15.6015 19.6578 12.1021 19.6578 7.8007C19.6578 3.49938 23.1572 0 27.4586 0C31.76 0 35.2594 3.49938 35.2594 7.8007ZM33.5021 7.8007C33.5021 4.46839 30.7909 1.75736 27.4586 1.75736C24.1263 1.75736 21.4152 4.46839 21.4152 7.8007C21.4152 11.133 24.1263 13.8441 27.4586 13.8441C30.7909 13.8441 33.5021 11.133 33.5021 7.8007Z" fill="white"/>
<path fill-rule="evenodd" clip-rule="evenodd" d="M10.9667 13.1591C9.00939 11.8217 6.56104 11.5713 4.24905 12.4733C2.56257 13.131 1.2142 14.4708 0.549217 16.149C0.116554 17.2412 -0.0619939 18.3582 0.018962 19.469C0.0543435 19.953 0.473767 20.3171 0.959151 20.2816C1.44313 20.2463 1.8069 19.8254 1.77176 19.3414C1.71025 18.4968 1.84861 17.6405 2.1831 16.7964C2.66883 15.5705 3.65471 14.5916 4.88779 14.1106C6.65031 13.4231 8.5048 13.6051 9.97536 14.6101C11.4126 15.5921 12.2706 17.2161 12.2706 18.954C12.2706 20.0447 11.9396 21.0905 11.3135 21.9786C11.3063 21.9889 11.2992 21.9995 11.2923 22.01L8.34007 26.6061C8.24916 26.7479 8.20077 26.9126 8.20077 27.0811V27.4813H7.89253V23.0824C8.78504 23.0022 9.48705 22.251 9.48705 21.338V19.8962C9.48705 18.93 8.70092 18.1438 7.73472 18.1438H6.29286C5.32667 18.1438 4.54054 18.93 4.54054 19.8962V21.338C4.54054 22.2509 5.24266 23.0022 6.13505 23.0824V27.4814H5.82681V27.0812C5.82681 26.9127 5.77842 26.748 5.68751 26.6062L3.00085 22.4236C2.73866 22.0153 2.19505 21.897 1.78663 22.1592C1.37846 22.4214 1.26001 22.9651 1.52221 23.3734L4.06945 27.339V27.9685C4.06945 28.2198 4.14373 28.4537 4.27014 28.6511V29.5609C4.27014 30.9744 5.42016 32.1246 6.8339 32.1246H7.19357C8.60719 32.1246 9.75733 30.9746 9.75733 29.5609V28.6511C9.88374 28.4537 9.95802 28.2198 9.95802 27.9685V27.339L12.761 22.9753C13.5898 21.7927 14.0278 20.4026 14.0278 18.9541C14.0278 16.6352 12.8836 14.4689 10.9667 13.1591ZM7.72957 19.8962L7.73519 21.333L7.06048 21.3353C7.05556 21.3351 7.05066 21.3347 7.04575 21.3344C7.0351 21.3337 7.02444 21.333 7.01362 21.333C7.00018 21.333 6.98694 21.3339 6.97374 21.3348C6.9691 21.3351 6.96447 21.3354 6.95984 21.3357L6.29778 21.338L6.29275 19.9012L7.72957 19.8962ZM7.99996 29.5608C7.99996 30.0054 7.63818 30.3671 7.19357 30.3671H6.8339C6.38928 30.3671 6.0275 30.0054 6.0275 29.5608V29.2386H7.99996V29.5608Z" fill="white"/>
<path fill-rule="evenodd" clip-rule="evenodd" d="M39.069 28.3983C39.1253 28.7893 39.2334 29.1713 39.3906 29.5334L41.298 33.9315C42.3619 36.3848 42.022 39.1134 40.3889 41.2306C38.9921 43.0418 36.9221 44.0512 34.6986 44.0512C34.3455 44.0512 33.9885 44.0248 33.6298 43.9731C32.9535 44.7816 32.1183 45.4517 31.1732 45.938V47.509L35.6658 49.3115C35.8042 49.367 35.9463 49.4293 36.1128 49.5076C36.5519 49.7141 36.7405 50.2376 36.534 50.6767C36.3842 50.995 36.068 51.1816 35.7382 51.1816C35.6129 51.1816 35.4857 51.1547 35.3647 51.0979C35.23 51.0345 35.1179 50.9852 35.0117 50.9426L30.9674 49.32C30.4623 50.7722 29.0805 51.8177 27.4585 51.8177C25.8364 51.8177 24.4547 50.7723 23.9496 49.32L19.9057 50.9424C17.4279 51.9365 15.8269 54.304 15.8269 56.9738V59.1212C15.8269 59.6066 15.4336 59.9999 14.9482 59.9999C14.4628 59.9999 14.0695 59.6066 14.0695 59.1212V56.9738C14.0695 53.5821 16.1035 50.5743 19.2513 49.3113L23.7439 47.509V45.8133C22.8947 45.3395 22.1415 44.7141 21.5216 43.9731C21.163 44.0247 20.8057 44.0512 20.4528 44.0512C18.2292 44.0513 16.1595 43.0419 14.7625 41.2306C13.1293 39.1133 12.7895 36.3847 13.8535 33.9315L15.7608 29.5334C15.918 29.1713 16.0261 28.7893 16.0824 28.3981C16.4801 25.6341 17.8616 23.1046 19.9721 21.276C22.0826 19.4474 24.783 18.4403 27.5755 18.4403C30.7316 18.4403 33.6845 19.6858 35.8902 21.9476C36.229 22.2948 36.222 22.8513 35.8746 23.19C35.5272 23.5287 34.9709 23.5221 34.6322 23.1744C32.76 21.2548 30.2539 20.1977 27.5756 20.1977C25.2058 20.1977 22.9141 21.0524 21.123 22.6042C19.3319 24.1561 18.1595 26.3028 17.8219 28.6485C17.7433 29.1942 17.5923 29.7273 17.3731 30.2328L15.4658 34.6308C14.6602 36.4883 14.9175 38.5542 16.1541 40.1574C17.2074 41.5233 18.7669 42.2839 20.4425 42.2901C19.9568 41.2667 19.6839 40.1236 19.6839 38.9176V32.832C19.6839 30.768 20.3942 28.7439 21.684 27.1324C21.9299 26.8251 22.2809 26.6328 22.6724 26.591C23.0639 26.5495 23.4475 26.6629 23.7528 26.9114L24.08 27.1777C25.3955 28.2478 27.0535 28.8619 28.7489 28.9066L33.7202 29.0376C34.7001 29.0635 35.4676 29.8515 35.4676 30.8315V38.9176C35.4676 40.1236 35.1947 41.2668 34.709 42.2901C36.3847 42.2838 37.9441 41.5232 38.9976 40.1574C40.234 38.5542 40.4913 36.4882 39.6857 34.6308L37.7784 30.2327C37.5592 29.7273 37.4082 29.1942 37.3296 28.6485C37.2055 27.7864 36.9671 26.9429 36.621 26.1418C36.4285 25.6964 36.6336 25.1792 37.0791 24.9868C37.525 24.7941 38.0418 24.9995 38.2342 25.4448C38.6419 26.3887 38.9228 27.3823 39.069 28.3983ZM27.4586 50.0604C28.5379 50.0604 29.4158 49.1825 29.4158 48.1033V46.5905C28.825 46.7322 28.2094 46.8093 27.5758 46.8093C26.8579 46.8093 26.1628 46.7112 25.5014 46.5307V48.1033C25.5014 49.1825 26.3794 50.0604 27.4586 50.0604ZM21.4414 38.9177C21.4414 42.3002 24.1933 45.052 27.5758 45.052C30.9582 45.052 33.7101 42.3002 33.7104 38.9177V30.8316C33.7104 30.8114 33.6943 30.795 33.6738 30.7944L28.7026 30.6634C26.6214 30.6084 24.5859 29.8548 22.971 28.5411L22.8767 28.4643C21.9492 29.7246 21.4414 31.2641 21.4414 32.8321V38.9177Z" fill="white"/>
<path d="M37.8946 53.2194C37.6141 52.8234 37.7079 52.275 38.104 51.9946C38.5 51.7142 39.0484 51.8079 39.3288 52.2041C40.3225 53.6077 40.8476 55.257 40.8476 56.9739V59.1213C40.8476 59.6067 40.4543 60 39.969 60C39.4836 60 39.0903 59.6067 39.0903 59.1213V56.9739C39.0903 55.6228 38.6768 54.3245 37.8946 53.2194Z" fill="white"/>
<path fill-rule="evenodd" clip-rule="evenodd" d="M53.9869 16.5437C54.5072 16.6194 54.9314 16.9768 55.0937 17.477C55.2561 17.9768 55.123 18.5152 54.7467 18.882L52.1045 21.4577L52.7282 25.0947C52.8171 25.6126 52.6082 26.1262 52.1831 26.4353C51.9427 26.6099 51.6615 26.6987 51.3784 26.6987C51.1606 26.6987 50.9417 26.6462 50.7393 26.5398L47.473 24.8226L44.2068 26.5398C43.7414 26.7844 43.1883 26.7445 42.7631 26.4354C42.338 26.1266 42.129 25.6129 42.2177 25.0948L42.8415 21.4576L40.199 18.8819C39.8227 18.5151 39.6898 17.9768 39.8521 17.4769C40.0144 16.9768 40.4385 16.6194 40.9587 16.5437L44.6105 16.0131L46.2437 12.704C46.4763 12.2327 46.9474 11.9399 47.4729 11.9399C47.9984 11.9399 48.4695 12.2327 48.7022 12.704L50.3353 16.0131L53.9869 16.5437ZM50.3378 21.5544C50.2616 21.1094 50.4091 20.6558 50.7322 20.3409L52.9591 18.1701L49.8814 17.7229C49.4344 17.6579 49.0485 17.3774 48.849 16.9726L47.4728 14.184L46.0963 16.9731C45.8969 17.3775 45.5111 17.6579 45.0645 17.723L41.9864 18.1702L44.2136 20.341C44.5366 20.6557 44.6839 21.1093 44.6078 21.5542L44.082 24.6198L46.8348 23.1725C47.0346 23.0675 47.2538 23.015 47.4729 23.015C47.692 23.015 47.911 23.0676 48.1108 23.1726L50.8635 24.6198L50.3378 21.5544Z" fill="white"/>
<path d="M36.7758 11.271C38.1167 11.794 39.4158 12.4346 40.6534 13.1785C40.2665 13.3602 40.0595 13.8013 40.1852 14.2234C40.2989 14.6047 40.6483 14.8513 41.027 14.8513C41.1101 14.8513 41.1945 14.8394 41.2783 14.8146L42.9429 14.3187C43.3153 14.2079 43.5706 13.8653 43.5706 13.4766V11.6761C43.5706 11.1908 43.1773 10.7975 42.6919 10.7975C42.2065 10.7975 41.8132 11.1908 41.8132 11.6761V11.828C40.4148 10.9665 38.9401 10.2289 37.4144 9.63374C36.9623 9.4573 36.4529 9.68083 36.2765 10.1331C36.1003 10.5852 36.3237 11.0946 36.7758 11.271Z" fill="white"/>
<path d="M14.0522 13.3051C13.9088 13.3932 13.7499 13.4352 13.5931 13.4352C13.2978 13.4352 13.0095 13.2864 12.8436 13.0164C12.5896 12.603 12.719 12.062 13.1324 11.8078C13.9661 11.2956 14.8326 10.8258 15.7181 10.4051C15.4821 10.1759 15.3844 9.82389 15.4975 9.49187C15.6538 9.03226 16.1533 8.78634 16.6123 8.9431L18.2225 9.49116C18.6604 9.64007 18.9078 10.1031 18.7883 10.5498L18.2517 12.5576C18.1467 12.9504 17.7914 13.2096 17.4034 13.2096C17.3283 13.2096 17.2519 13.1999 17.176 13.1796C16.7071 13.0542 16.4286 12.5725 16.554 12.1038L16.5997 11.9327C15.7267 12.3416 14.8725 12.8011 14.0522 13.3051Z" fill="white"/>
</svg>
