<svg width="30" height="30" viewBox="0 0 30 30" fill="none" xmlns="http://www.w3.org/2000/svg">
<path d="M28.4175 16.8164C28.4564 16.4844 28.4904 16.1523 28.5196 15.8203C28.5488 15.4883 28.5633 15.1562 28.5633 14.8242C28.5633 12.9297 28.1938 11.123 27.4547 9.4043C26.7155 7.68555 25.7284 6.20605 24.4933 4.96582C23.2582 3.72559 21.7848 2.73926 20.0731 2.00684C18.3615 1.27441 16.572 0.908203 14.7047 0.908203C14.0823 0.908203 13.4404 0.947266 12.7791 1.02539C11.4954 0.341797 10.1241 0 8.66528 0C6.27285 0 4.23053 0.849609 2.53832 2.54883C0.846105 4.24805 0 6.29883 0 8.70117C0 10.1465 0.330662 11.4941 0.991985 12.7441C0.953084 13.0957 0.919045 13.4424 0.889869 13.7842C0.860693 14.126 0.846105 14.4727 0.846105 14.8242C0.846105 16.3281 1.07951 17.7881 1.54633 19.2041C2.01315 20.6201 2.67447 21.8994 3.5303 23.042C4.38613 24.1846 5.38298 25.1855 6.52084 26.0449C7.65871 26.9043 8.93273 27.5684 10.3429 28.0371C11.7531 28.5059 13.207 28.7402 14.7047 28.7402C14.977 28.7402 15.2493 28.7305 15.5217 28.7109C15.794 28.6914 16.0565 28.6621 16.3094 28.623C17.7293 29.541 19.2854 30 20.9776 30C23.37 30 25.4123 29.1504 27.1045 27.4512C28.7968 25.752 29.6429 23.7012 29.6429 21.2988C29.6429 19.6973 29.2344 18.2031 28.4175 16.8164ZM25.7041 26.0449C25.0622 26.6699 24.3377 27.1533 23.5305 27.4951C22.7233 27.8369 21.8723 28.0078 20.9776 28.0078C19.6355 28.0078 18.4101 27.6367 17.3014 26.8945L16.8054 26.5723L16.2219 26.6309C15.7356 26.709 15.2299 26.748 14.7047 26.748C13.0903 26.748 11.5537 26.4355 10.0949 25.8105C8.67501 25.2051 7.41558 24.3506 6.31661 23.2471C5.21765 22.1436 4.36668 20.8789 3.76371 19.4531C3.14129 17.9883 2.83008 16.4453 2.83008 14.8242C2.83008 14.1797 2.8787 13.5449 2.97596 12.9199L3.06348 12.3926L2.8009 11.9238C2.52859 11.4355 2.32436 10.918 2.1882 10.3711C2.05205 9.82422 1.98397 9.26758 1.98397 8.70117C1.98397 6.8457 2.63557 5.26367 3.93877 3.95508C4.58064 3.31055 5.30518 2.82227 6.11238 2.49023C6.91958 2.1582 7.77055 1.99219 8.66528 1.99219C9.22935 1.99219 9.78856 2.06543 10.3429 2.21191C10.8973 2.3584 11.4273 2.56836 11.933 2.8418L12.3998 3.10547L12.9542 3.01758C13.2265 2.97852 13.5134 2.94922 13.8149 2.92969C14.1163 2.91016 14.413 2.90039 14.7047 2.90039C16.3191 2.90039 17.8557 3.21289 19.3145 3.83789C20.7344 4.44336 21.9987 5.29297 23.1074 6.38672C23.652 6.93359 24.1383 7.52441 24.5662 8.15918C24.9941 8.79395 25.354 9.47266 25.6457 10.1953C26.2682 11.6602 26.5794 13.2031 26.5794 14.8242C26.5794 15.0195 26.5745 15.2246 26.5648 15.4395C26.5551 15.6543 26.5405 15.8643 26.521 16.0693C26.5016 16.2744 26.4724 16.4746 26.4335 16.6699L26.346 17.2559L26.6669 17.7539C26.9976 18.3008 27.2456 18.8721 27.4109 19.4678C27.5762 20.0635 27.6589 20.6738 27.6589 21.2988C27.6589 23.1543 27.0073 24.7363 25.7041 26.0449ZM16.7762 13.5352L13.9753 12.8906C13.1973 12.7148 12.6186 12.4951 12.2393 12.2314C11.8601 11.9678 11.6704 11.6504 11.6704 11.2793C11.6704 11.0254 11.7239 10.7959 11.8309 10.5908C11.9379 10.3857 12.0983 10.1953 12.3123 10.0195C12.7208 9.70703 13.314 9.55078 14.092 9.55078C14.5394 9.55078 14.943 9.59961 15.3028 9.69727C15.6627 9.79492 15.9885 9.94141 16.2802 10.1367C16.4358 10.2344 16.7859 10.5762 17.3306 11.1621C17.7001 11.5527 18.0891 11.748 18.4976 11.748C18.6921 11.748 18.8818 11.7188 19.0665 11.6602C19.2513 11.6016 19.4215 11.5137 19.5771 11.3965C19.8689 11.1621 20.0148 10.8301 20.0148 10.4004C20.0148 9.46289 19.3923 8.65234 18.1475 7.96875C16.9805 7.30469 15.6967 6.97266 14.2963 6.97266C13.4988 6.97266 12.7645 7.05566 12.0935 7.22168C11.4224 7.3877 10.8243 7.64648 10.2991 7.99805C9.67672 8.4082 9.2099 8.90137 8.89869 9.47754C8.58748 10.0537 8.43188 10.7227 8.43188 11.4844C8.43188 13.5742 9.62809 14.9219 12.0205 15.5273L15.8134 16.4941C16.7665 16.7285 17.243 17.2363 17.243 18.0176C17.243 18.5449 17.0096 18.9941 16.5428 19.3652C16.0371 19.7754 15.3758 19.9805 14.5588 19.9805C13.5863 19.9805 12.8083 19.7461 12.2248 19.2773C12.0886 19.1797 11.719 18.7598 11.1161 18.0176C10.7271 17.5488 10.2991 17.3145 9.83233 17.3145C9.42386 17.3145 9.08347 17.4414 8.81116 17.6953C8.67501 17.832 8.57776 17.9834 8.5194 18.1494C8.46105 18.3154 8.43188 18.5059 8.43188 18.7207C8.43188 19.6387 8.92787 20.4492 9.91985 21.1523C11.0674 22.0117 12.6138 22.4414 14.5588 22.4414C15.5314 22.4414 16.3969 22.3291 17.1555 22.1045C17.9141 21.8799 18.556 21.543 19.0811 21.0938C20.0926 20.2734 20.5983 19.1699 20.5983 17.7832C20.6177 15.5371 19.3437 14.1211 16.7762 13.5352Z" fill="#513595"/>
</svg>
