<svg width="18" height="18" viewBox="0 0 18 18" fill="none" xmlns="http://www.w3.org/2000/svg">
<path d="M4.08614 17.2058V5.59706H0.227649V17.2058H4.08614ZM2.15739 4.01114C3.50292 4.01114 4.34044 3.11973 4.34044 2.00576C4.31537 0.866671 3.50297 0 2.18293 0C0.863092 0 0 0.866688 0 2.00576C0 3.11978 0.837318 4.01114 2.13221 4.01114H2.15727H2.15739ZM6.22181 17.2058H10.0803V10.7229C10.0803 10.3759 10.1054 10.0294 10.2073 9.78133C10.4862 9.08813 11.1211 8.37017 12.187 8.37017C13.5832 8.37017 14.1417 9.43472 14.1417 10.9953V17.2057H18V10.5494C18 6.98362 16.0964 5.32453 13.5578 5.32453C11.4763 5.32453 10.5624 6.48801 10.0546 7.28046H10.0804V5.59682H6.22189C6.27253 6.68612 6.22189 17.2055 6.22189 17.2055L6.22181 17.2058Z" fill="white"/>
</svg>
