<svg width="18" height="18" viewBox="0 0 18 18" fill="none" xmlns="http://www.w3.org/2000/svg">
<path d="M17.3654 10.5036C17.4577 9.99599 17.5072 9.47713 17.5072 8.95827C17.5072 7.80775 17.2821 6.69106 16.8388 5.64206C16.4113 4.6269 15.797 3.7155 15.0161 2.9327C14.2418 2.15446 13.3239 1.5346 12.3135 1.10766C11.2649 0.663241 10.1533 0.437649 9.00562 0.437649C8.46556 0.437649 7.92324 0.489535 7.39668 0.591051C6.66807 0.203988 5.85622 0.00109682 5.03163 0C3.68822 0 2.42356 0.52563 1.47395 1.47763C1.00535 1.94498 0.633822 2.50082 0.380829 3.11301C0.127837 3.7252 -0.00159538 4.3816 1.48412e-05 5.04424C1.48412e-05 5.90149 0.220542 6.74521 0.632343 7.48966C0.549083 7.97243 0.504077 8.46647 0.504077 8.95827C0.504077 10.1088 0.729105 11.2255 1.17241 12.2745C1.59996 13.2896 2.21204 14.201 2.99288 14.9838C3.77373 15.7666 4.68284 16.3802 5.69547 16.8089C6.7441 17.2533 7.85573 17.4789 9.00337 17.4789C9.50294 17.4789 10.0025 17.4338 10.4931 17.3458C11.2469 17.7722 12.0975 18 12.9684 18C14.3118 18 15.5764 17.4766 16.5261 16.5224C17.4779 15.5704 18 14.3025 18 12.9558C18.0022 12.0985 17.7817 11.2525 17.3654 10.5036ZM9.03938 14.1785C6.01951 14.1785 4.66934 12.6896 4.66934 11.5751C4.66934 11.0021 5.09014 10.6028 5.67071 10.6028C6.96237 10.6028 6.62933 12.464 9.03938 12.464C10.2748 12.464 10.9566 11.7917 10.9566 11.1036C10.9566 10.6908 10.7541 10.2306 9.93949 10.0298L7.25266 9.35756C5.09014 8.81389 4.69634 7.64081 4.69634 6.53992C4.69634 4.25241 6.84536 3.39291 8.86386 3.39291C10.7226 3.39291 12.9144 4.42386 12.9144 5.79546C12.9144 6.38426 12.4058 6.7249 11.8252 6.7249C10.7226 6.7249 10.9251 5.19539 8.70409 5.19539C7.60145 5.19539 6.99163 5.6962 6.99163 6.41133C6.99163 7.12646 7.86248 7.35431 8.61858 7.52801L10.6078 7.97017C12.7861 8.45745 13.3374 9.73205 13.3374 10.9322C13.3374 12.7888 11.913 14.1785 9.03938 14.1785V14.1785Z" fill="white"/>
</svg>
