<svg width="18" height="14" viewBox="0 0 18 14" fill="none" xmlns="http://www.w3.org/2000/svg">
<path d="M18 1.84465V12.2764C18 12.9544 17.451 13.5034 16.773 13.5034H13.9088V6.5494L9 10.2319L4.09125 6.5494V13.5041H1.227C1.06581 13.5041 0.90619 13.4724 0.757274 13.4107C0.608359 13.349 0.473062 13.2585 0.359115 13.1445C0.245168 13.0305 0.154803 12.8951 0.0931847 12.7462C0.0315663 12.5972 -9.83008e-05 12.4376 2.29239e-07 12.2764V1.84465C2.29239e-07 0.327398 1.73175 -0.538852 2.94525 0.371648L4.09125 1.2319L9 4.9129L13.9088 1.2304L15.0547 0.371648C16.2675 -0.538102 18 0.327398 18 1.84465Z" fill="white"/>
</svg>
